<svg xmlns="http://www.w3.org/2000/svg" viewBox="0 0 96 132">
  <ellipse cx="47" cy="124" rx="23" ry="5" fill="#24180f" opacity="0.16"/>
  <path d="M26 55 C30 74 31 95 24 111 C45 107 61 94 70 72 C51 70 43 60 26 55 Z" fill="#4f6535" opacity="0.85" stroke="#26321d" stroke-width="2"/>
  <circle cx="48" cy="35" r="12" fill="#e8b88f" stroke="#2b2117" stroke-width="2.5"/>
  <path d="M34 31 C38 19 57 18 63 31 C54 29 44 29 34 31 Z" fill="#6f8f46" stroke="#2b2117" stroke-width="2.5"/>
  <path d="M38 51 L52 47 L65 61 L58 105 L35 105 L30 64 Z" fill="#6f8f46" stroke="#2b2117" stroke-width="3"/>
  <path d="M39 56 L58 66" stroke="#f2c94c" stroke-width="3" stroke-linecap="round"/>
  <path d="M33 64 L19 82 L25 87 L40 70 Z" fill="#e8b88f" stroke="#2b2117" stroke-width="2"/>
  <path d="M61 62 L75 70 L72 77 L57 70 Z" fill="#e8b88f" stroke="#2b2117" stroke-width="2"/>
  <path d="M75 28 C92 54 91 91 72 113" fill="none" stroke="#8b5a2b" stroke-width="5" stroke-linecap="round"/>
  <path d="M75 29 L72 112" stroke="#f4e6bd" stroke-width="1.8"/>
  <path d="M23 85 L69 62" stroke="#d9dde3" stroke-width="2.8" stroke-linecap="round"/>
  <path d="M69 62 L59 60 L64 68 Z" fill="#d9dde3" stroke="#2b2117" stroke-width="1"/>
  <path d="M35 104 L31 124 M54 104 L61 124" stroke="#3b2910" stroke-width="6" stroke-linecap="round"/>
  <path d="M29 124 L39 124 M58 124 L67 124" stroke="#b98945" stroke-width="4" stroke-linecap="round"/>
  <path d="M25 48 L17 82" stroke="#4b2f20" stroke-width="4" stroke-linecap="round"/>
  <path d="M18 47 L32 51" stroke="#d9dde3" stroke-width="2"/>
</svg>
