<svg xmlns="http://www.w3.org/2000/svg" viewBox="0 0 128 154">
  <ellipse cx="64" cy="145" rx="34" ry="6" fill="#24180f" opacity="0.16"/>
  <circle cx="64" cy="75" r="58" fill="#f2c94c" opacity="0.13"/>
  <circle cx="64" cy="75" r="43" fill="#8fb3ff" opacity="0.12"/>
  <path d="M39 26 C48 10 80 10 89 26 L91 52 L37 52 Z" fill="#f2c94c" stroke="#3b2910" stroke-width="3.5"/>
  <path d="M45 24 L64 7 L83 24 L76 33 L52 33 Z" fill="#ffe08a" stroke="#7d5520" stroke-width="2.5"/>
  <circle cx="64" cy="55" r="14" fill="#e8b88f" stroke="#3b2910" stroke-width="3"/>
  <path d="M40 75 L64 60 L88 75 L99 121 C87 134 75 143 64 148 C53 143 41 134 29 121 Z" fill="#2d6cdf" stroke="#2b2117" stroke-width="4"/>
  <path d="M52 76 L76 76 L71 119 L57 119 Z" fill="#f2c94c"/>
  <path d="M35 74 L22 95 L31 101 L45 82 Z" fill="#e8b88f" stroke="#2b2117" stroke-width="2"/>
  <circle cx="34" cy="96" r="22" fill="#f2c94c" stroke="#2d6cdf" stroke-width="5"/>
  <path d="M94 22 L102 140" stroke="#d7e8ff" stroke-width="5" stroke-linecap="round"/>
  <path d="M100 8 L111 29 L97 31 Z" fill="#ffffff" stroke="#8fb3ff" stroke-width="2.5"/>
  <path d="M55 136 L49 151 M75 136 L82 151" stroke="#2b2117" stroke-width="7" stroke-linecap="round"/>
</svg>
